<?xml version="1.0" encoding="iso-8859-1"?>
<!-- Generator: Adobe Illustrator 19.0.0, SVG Export Plug-In . SVG Version: 6.00 Build 0)  -->
<svg version="1.1" id="Capa_1" xmlns="http://www.w3.org/2000/svg" xmlns:xlink="http://www.w3.org/1999/xlink" x="0px" y="0px"
	 viewBox="0 0 512 512" style="enable-background:new 0 0 512 512;" xml:space="preserve">
<g>
	<g>
		<path d="M136,241c-8.276,0-15,6.724-15,15s6.724,15,15,15s15-6.724,15-15S144.276,241,136,241z"/>
	</g>
</g>
<g>
	<g>
		<path d="M361,361c-8.276,0-15,6.724-15,15s6.724,15,15,15s15-6.724,15-15S369.276,361,361,361z"/>
	</g>
</g>
<g>
	<g>
		<path d="M361,121c-8.276,0-15,6.724-15,15s6.724,15,15,15s15-6.724,15-15S369.276,121,361,121z"/>
	</g>
</g>
<g>
	<g>
		<path d="M169.657,121H241V0C212.902,12.268,186.504,61.894,169.657,121z"/>
	</g>
</g>
<g>
	<g>
		<path d="M22.886,151C10.289,178.731,1.871,209.072,0,241h93.763c4.757-13.343,15.564-23.672,29.172-27.838
			c1.743-20.984,4.66-41.88,8.763-62.162H22.886z"/>
	</g>
</g>
<g>
	<g>
		<path d="M162.285,151c-4.336,20.25-7.562,41.526-9.405,63.349c11.843,4.819,21.044,14.561,25.356,26.651H241v-90H162.285z"/>
	</g>
</g>
<g>
	<g>
		<path d="M271,0v121h47.763c3.195-8.959,9.014-16.655,16.705-21.982C318.75,50.819,295.507,10.701,271,0z"/>
	</g>
</g>
<g>
	<g>
		<path d="M390.621,271c-0.663,22.273-2.734,44.727-6.183,66.769c8.677,5.339,15.326,13.491,18.799,23.231h85.877
			c12.598-27.731,21.015-58.072,22.886-90H390.621z"/>
	</g>
</g>
<g>
	<g>
		<path d="M489.114,151h-85.877c-3.474,9.739-10.122,17.891-18.799,23.231c3.45,22.042,5.521,44.496,6.183,66.769H512
			C510.129,209.072,501.711,178.731,489.114,151z"/>
	</g>
</g>
<g>
	<g>
		<path d="M355.138,180.407c-16.921-2.234-30.802-13.775-36.376-29.407H271v90h89.628
			C359.993,220.435,358.134,200.089,355.138,180.407z"/>
	</g>
</g>
<g>
	<g>
		<path d="M271,271v90h47.763c5.574-15.632,19.455-27.173,36.376-29.407c2.996-19.682,4.854-40.029,5.49-60.593H271z"/>
	</g>
</g>
<g>
	<g>
		<path d="M178.237,271c-4.312,12.09-13.513,21.832-25.357,26.651c1.842,21.823,5.068,43.099,9.404,63.349H241v-90H178.237z"/>
	</g>
</g>
<g>
	<g>
		<path d="M39.062,121h99.734c11.823-44.224,29.028-88.246,50.5-115.49C126.713,22.516,72.735,67.335,39.062,121z"/>
	</g>
</g>
<g>
	<g>
		<path d="M122.935,298.838C109.327,294.672,98.52,284.343,93.763,271H0c1.871,31.928,10.289,62.269,22.886,90h108.813
			C127.595,340.717,124.679,319.821,122.935,298.838z"/>
	</g>
</g>
<g>
	<g>
		<path d="M403.238,391.001c-5.866,16.447-20.937,28.379-39.05,29.677c-10.994,31.99-24.959,64.845-41.484,85.813
			c62.584-17.007,116.562-61.826,150.235-115.49H403.238z"/>
	</g>
</g>
<g>
	<g>
		<path d="M138.797,391H39.062c33.673,53.665,87.651,98.484,150.235,115.49C167.824,479.246,150.62,435.223,138.797,391z"/>
	</g>
</g>
<g>
	<g>
		<path d="M169.657,391c16.847,59.106,43.245,108.732,71.343,121V391H169.657z"/>
	</g>
</g>
<g>
	<g>
		<path d="M318.763,391H271v121c24.507-10.701,47.75-50.819,64.468-99.018C327.777,407.655,321.958,399.959,318.763,391z"/>
	</g>
</g>
<g>
	<g>
		<path d="M322.703,5.51c16.525,20.967,30.491,53.822,41.484,85.813c18.114,1.297,33.185,13.229,39.05,29.677h69.701
			C439.265,67.335,385.287,22.516,322.703,5.51z"/>
	</g>
</g>
<g>
</g>
<g>
</g>
<g>
</g>
<g>
</g>
<g>
</g>
<g>
</g>
<g>
</g>
<g>
</g>
<g>
</g>
<g>
</g>
<g>
</g>
<g>
</g>
<g>
</g>
<g>
</g>
<g>
</g>
</svg>
